<svg width="24" height="24" viewBox="0 0 24 24" fill="none" xmlns="http://www.w3.org/2000/svg">
<path d="M19.2907 10.1072C19.3147 7.21519 16.8517 4.56419 13.8007 4.19719C13.7348 4.18897 13.6691 4.17896 13.6037 4.16719C13.4503 4.13783 13.2948 4.1211 13.1387 4.11719C12.5127 4.11719 12.3457 4.55719 12.3017 4.81819C12.2587 5.07319 12.2997 5.28819 12.4227 5.45519C12.6297 5.73619 12.9947 5.78619 13.2877 5.82619C13.3727 5.83819 13.4537 5.84919 13.5217 5.86419C16.2637 6.47719 17.1867 7.44019 17.6377 10.1592C17.6487 10.2252 17.6537 10.3072 17.6597 10.3942C17.6797 10.7192 17.7197 11.3952 18.4467 11.3952C18.5067 11.3952 18.5727 11.3902 18.6407 11.3802C19.3167 11.2772 19.2957 10.6592 19.2857 10.3622C19.2827 10.2782 19.2797 10.1992 19.2877 10.1462C19.2893 10.1329 19.29 10.1196 19.2897 10.1062L19.2907 10.1072Z" fill="#353333"/>
<path d="M12.96 3.136C13.042 3.142 13.118 3.148 13.182 3.157C17.685 3.85 19.756 5.983 20.329 10.521C20.339 10.598 20.341 10.692 20.342 10.791C20.348 11.146 20.36 11.884 21.152 11.899H21.176C21.425 11.899 21.622 11.824 21.764 11.676C22.01 11.419 21.994 11.036 21.979 10.728C21.976 10.652 21.973 10.581 21.973 10.518C22.031 5.878 18.013 1.669 13.377 1.513C13.357 1.513 13.339 1.513 13.321 1.516C13.3028 1.5183 13.2844 1.5193 13.266 1.519C13.219 1.519 13.163 1.515 13.102 1.511C13.03 1.506 12.947 1.5 12.862 1.5C12.124 1.5 11.984 2.025 11.966 2.338C11.925 3.061 12.624 3.112 12.96 3.136ZM20.112 16.386C20.0154 16.3126 19.9197 16.2379 19.825 16.162C19.333 15.766 18.81 15.402 18.305 15.049L17.99 14.829C17.342 14.374 16.76 14.153 16.21 14.153C15.468 14.153 14.822 14.563 14.288 15.37C14.052 15.728 13.765 15.902 13.412 15.902C13.1668 15.8934 12.9262 15.8331 12.706 15.725C10.616 14.777 9.12201 13.323 8.26801 11.404C7.85501 10.476 7.98901 9.87 8.71501 9.376C9.12801 9.096 9.89501 8.575 9.84201 7.576C9.78001 6.443 7.27901 3.032 6.22501 2.645C5.77443 2.48064 5.28052 2.47923 4.82901 2.641C3.61801 3.048 2.75001 3.764 2.31501 4.709C1.89501 5.623 1.91501 6.696 2.36901 7.812C3.68401 11.039 5.53201 13.853 7.86301 16.175C10.144 18.448 12.948 20.309 16.196 21.708C16.489 21.834 16.796 21.903 17.021 21.953C17.097 21.97 17.163 21.985 17.211 21.998C17.2374 22.0051 17.2647 22.0088 17.292 22.009H17.318C18.846 22.009 20.681 20.613 21.244 19.022C21.738 17.628 20.836 16.939 20.112 16.386ZM13.636 6.823C13.375 6.829 12.83 6.843 12.639 7.397C12.549 7.657 12.56 7.881 12.671 8.066C12.833 8.336 13.144 8.42 13.426 8.466C14.451 8.63 14.978 9.196 15.083 10.249C15.132 10.739 15.463 11.082 15.886 11.082C15.9181 11.082 15.9502 11.0799 15.982 11.076C16.492 11.016 16.739 10.641 16.717 9.962C16.725 9.254 16.355 8.45 15.724 7.81C15.092 7.168 14.33 6.806 13.636 6.823Z" fill="#353333"/>
</svg>
