<svg width="31" height="31" viewBox="0 0 31 31" fill="none" xmlns="http://www.w3.org/2000/svg">
<path d="M27.3138 23.8927C25.924 25.1226 23.9097 26.0047 21.271 26.539C18.6322 27.0733 15.9129 27.2296 13.1131 27.0078L7.79532 31V26.0098C6.04288 25.4654 4.67316 24.7597 3.68616 23.8927C2.51787 22.8644 1.61144 21.3875 0.966862 19.462C0.322287 17.5364 0 15.5706 0 13.5644C0 11.5582 0.322287 9.59236 0.966862 7.66683C1.61144 5.7413 2.5229 4.25935 3.70127 3.22098C4.87963 2.1826 6.5666 1.38618 8.76218 0.831707C10.9578 0.277236 13.2037 0 15.5 0C17.7963 0 20.0422 0.277236 22.2378 0.831707C24.4334 1.38618 26.1204 2.1826 27.2987 3.22098C28.4771 4.25935 29.3886 5.7413 30.0331 7.66683C30.6777 9.59236 31 11.5582 31 13.5644C31 15.5706 30.6777 17.5364 30.0331 19.462C29.3886 21.3875 28.4821 22.8644 27.3138 23.8927ZM19.307 16.4829L21.271 16.8156C21.1098 14.3961 20.1782 12.3294 18.4761 10.6156C16.774 8.90179 14.7144 7.96423 12.2973 7.80293L12.6296 9.76878C14.3619 9.99057 15.8525 10.7265 17.1014 11.9766C18.3502 13.2267 19.0854 14.7288 19.307 16.4829ZM12.962 11.7951L13.3246 13.9727C14.1303 14.3759 14.7245 14.9707 15.1072 15.7571L17.2827 16.12C17.0409 15.0514 16.5273 14.1289 15.7417 13.3527C14.9561 12.5764 14.0296 12.0572 12.962 11.7951ZM9.72904 13.5795V11.6439C9.72904 11.3011 9.60315 10.9584 9.35136 10.6156C9.09958 10.2728 8.83268 10.0259 8.55068 9.87463C8.26868 9.72341 8.05718 9.70829 7.91618 9.82927L6.52632 11.2507C5.74074 12.0371 5.62492 13.262 6.17885 14.9254C6.73278 16.5888 7.79029 18.2018 9.35136 19.7644C10.9124 21.327 12.5239 22.3855 14.1857 22.94C15.8475 23.4945 17.0611 23.3785 17.8265 22.5922L19.2466 21.1707C19.3876 21.0498 19.3826 20.8431 19.2315 20.5507C19.0804 20.2584 18.8337 19.9912 18.4912 19.7493C18.1488 19.5073 17.8064 19.3863 17.4639 19.3863H15.5302L14.4123 20.3541C13.526 20.1122 12.4232 19.3309 11.1038 18.0102C9.78444 16.6896 9.0039 15.5756 8.76218 14.6683L9.72904 13.5795ZM11.6628 3.90146L11.9649 5.86732C13.9792 5.90764 15.8424 6.43691 17.5546 7.45512C19.2667 8.47333 20.6264 9.83431 21.6335 11.538C22.6407 13.2418 23.1745 15.1018 23.2349 17.118L25.1988 17.4507C25.1988 15.6159 24.8413 13.8618 24.1262 12.1883C23.4111 10.5148 22.4493 9.07317 21.2407 7.86341C20.0322 6.65366 18.5919 5.69089 16.9201 4.97512C15.2482 4.25935 13.4958 3.90146 11.6628 3.90146Z" fill="#353333" fill-opacity="0.9"/>
</svg>
