<svg width="26" height="26" viewBox="0 0 26 26" fill="none" xmlns="http://www.w3.org/2000/svg">
<path d="M25.6004 22.7999V3.1999C25.6004 1.6599 24.3362 0.399902 22.7934 0.399902H3.20739C1.59739 0.399902 0.400391 1.5941 0.400391 3.1999V22.7999C0.400391 24.4071 1.59739 25.5999 3.20739 25.5999H22.7934C23.5363 25.5988 24.2486 25.3037 24.7745 24.779C25.3005 24.2543 25.5974 23.5428 25.6004 22.7999ZM20.258 15.2497C20.258 15.2497 21.8428 16.8135 22.2334 17.5387C22.2446 17.5541 22.2488 17.5681 22.253 17.5737C22.4112 17.8397 22.4518 18.0497 22.372 18.2037C22.2404 18.4599 21.7924 18.5887 21.6398 18.5999H18.8412C18.6452 18.5999 18.2392 18.5495 17.7464 18.2093C17.3684 17.9461 16.9946 17.5107 16.6306 17.0865C16.0874 16.4565 15.617 15.9105 15.1438 15.9105C15.0838 15.9104 15.0241 15.9203 14.9674 15.9399C14.6076 16.0547 14.1512 16.5657 14.1512 17.9307C14.1512 18.3577 13.8152 18.6013 13.5772 18.6013H12.2948C11.858 18.6013 9.58299 18.4487 7.56839 16.3221C5.09599 13.7181 2.87559 8.4947 2.85599 8.4485C2.71599 8.1111 3.00579 7.9277 3.32079 7.9277H6.14879C6.52819 7.9277 6.64999 8.1573 6.73679 8.3631C6.83479 8.5969 7.20439 9.5405 7.80919 10.6017C8.79339 12.3279 9.39959 13.0307 9.88259 13.0307C9.9729 13.0302 10.0616 13.0066 10.1402 12.9621C10.7716 12.6135 10.654 10.3623 10.626 9.8975C10.626 9.8093 10.6246 8.8909 10.3026 8.4499C10.0702 8.1307 9.67679 8.0089 9.43879 7.9627C9.53584 7.82898 9.66354 7.72048 9.81119 7.6463C10.2438 7.4307 11.0236 7.3999 11.7992 7.3999H12.2304C13.0718 7.4111 13.2902 7.4657 13.594 7.5427C14.2086 7.6897 14.2212 8.0887 14.1666 9.4467C14.1512 9.8331 14.1344 10.2713 14.1344 10.7851C14.1344 10.8957 14.1302 11.0175 14.1302 11.1435C14.1106 11.8379 14.0882 12.6233 14.5782 12.9453C14.6416 12.985 14.7148 13.0063 14.7896 13.0069C14.9604 13.0069 15.4714 13.0069 16.856 10.6311C17.465 9.5825 17.934 8.3449 17.9662 8.2525C18.0151 8.1526 18.0859 8.06503 18.1734 7.9963C18.2451 7.95906 18.325 7.94029 18.4058 7.9417H21.7308C22.0948 7.9417 22.3412 7.9963 22.3874 8.1349C22.4672 8.3575 22.372 9.0365 20.853 11.0889L20.1768 11.9849C18.7992 13.7881 18.7992 13.8805 20.258 15.2497Z" fill="#353333" fill-opacity="0.9"/>
</svg>
