<svg width="34" height="24" viewBox="0 0 34 24" fill="none" xmlns="http://www.w3.org/2000/svg">
<path d="M33.2925 4.21828C33.1 3.53152 32.725 2.90977 32.2074 2.41911C31.6751 1.91337 31.0228 1.55159 30.3119 1.36794C27.6514 0.666693 16.9924 0.666693 16.9924 0.666693C12.5488 0.616136 8.10623 0.838499 3.68987 1.33253C2.97898 1.52975 2.32784 1.8996 1.79437 2.40919C1.27021 2.91353 0.890541 3.53544 0.692208 4.21686C0.215773 6.7835 -0.015712 9.3896 0.000874343 12C-0.0161257 14.6081 0.214791 17.2134 0.692208 19.7832C0.886291 20.4618 1.26454 21.0809 1.79012 21.5809C2.31571 22.081 2.97021 22.4423 3.68987 22.6335C6.38579 23.3334 16.9924 23.3334 16.9924 23.3334C21.4416 23.384 25.8898 23.1616 30.3119 22.6675C31.0228 22.4839 31.6751 22.1221 32.2074 21.6164C32.7315 21.1163 33.1041 20.4944 33.2911 19.8172C33.78 17.2515 34.0177 14.6444 34.0009 12.0326C34.0376 9.4098 33.8002 6.79033 33.2925 4.21686V4.21828ZM13.6037 16.8507V7.15078L22.472 12.0014L13.6037 16.8507Z" fill="#353333" fill-opacity="0.9"/>
</svg>
